<svg width="40" height="40" viewBox="0 0 40 40" fill="none" xmlns="http://www.w3.org/2000/svg">
<path d="M17.6417 20L10.5707 12.9289C9.9198 12.2781 9.9198 11.2228 10.5707 10.5719C11.2215 9.92104 12.2768 9.92104 12.9277 10.5719L19.9988 17.643L27.0698 10.5719C27.7207 9.92104 28.776 9.92104 29.4269 10.5719C30.0777 11.2228 30.0777 12.2781 29.4269 12.9289L22.3558 20L29.4269 27.0711C30.0777 27.7219 30.0777 28.7772 29.4269 29.4281C28.776 30.079 27.7207 30.079 27.0698 29.4281L19.9988 22.357L12.9277 29.4281C12.2768 30.079 11.2215 30.079 10.5707 29.4281C9.91979 28.7772 9.9198 27.7219 10.5707 27.0711L17.6417 20Z" fill="#EB5757"/>
</svg>
